<svg width="296" height="296" viewBox="0 0 296 296" fill="none" xmlns="http://www.w3.org/2000/svg">
<g clip-path="url(#clip0_653_174)">
<path fill-rule="evenodd" clip-rule="evenodd" d="M199.968 41.8577C199.987 41.9438 199.998 41.9924 200 42C200.028 42.0875 200.302 42.1396 200.615 42.199C200.802 42.2346 201.003 42.2728 201.174 42.3228C206.676 43.9342 210.945 45.5716 214.147 49.1924C215.366 50.5712 216.316 52.0041 216.896 53.7561C216.97 53.9817 217.04 54.2102 217.11 54.4392L217.11 54.4398C217.275 54.9824 217.441 55.527 217.676 56.04C218.245 57.2812 219.114 58.4912 219.99 59.533C220.901 60.6159 221.999 61.5512 223.083 62.4745L223.084 62.4748L223.084 62.4751L223.084 62.4753L223.084 62.4756C223.344 62.6965 223.602 62.9166 223.857 63.1379C225.735 64.7593 227.605 66.3901 229.467 68.0303C229.709 68.2443 229.968 68.46 230.23 68.679C230.931 69.2642 231.66 69.8735 232.197 70.5414C232.663 71.1201 232.825 71.8702 232.77 72.6006C232.662 74.0376 231.829 75.7011 230.696 76.603C230.142 77.0444 229.448 77.3531 228.727 77.2288C228.331 77.1605 228.088 76.9087 227.824 76.6348C227.636 76.4406 227.439 76.2352 227.167 76.0763C226.729 75.8193 226 75.5 226 75.5C226 75.5 225.084 74.9407 224.542 74.7203L224.518 74.7107L224.47 74.6914C224.424 74.6734 224.367 74.6515 224.302 74.626C223.313 74.2423 220.209 73.0371 218.841 71.7291L218.938 71.928C219.995 74.0801 222.055 75.5421 224.213 76.4559C224.336 76.5082 224.479 76.5608 224.631 76.6162L224.631 76.6163C225.068 76.7766 225.57 76.9606 225.837 77.23C225.56 77.7861 225.239 77.9651 224.659 78.1683C222.518 78.9187 220.252 79.16 218.152 78.1495C217.604 77.8854 217.112 77.5212 216.62 77.157C216.299 76.92 215.979 76.683 215.644 76.4738C213.329 75.0317 210.695 73.8098 208.04 73.1597C205.875 72.6297 203.476 72.7035 201.108 72.7763C195.875 72.9372 190.787 73.0937 188.676 66.7257C187.814 64.1285 188.253 61.5767 188.775 58.9612C187.534 62.5358 186.989 66.2924 188.673 69.8369C189.276 71.1073 190.611 73.0709 191.984 73.5363C192.951 73.8642 194.302 73.7938 195.599 73.7262C196.992 73.6536 198.322 73.5844 199.042 74.0162C199.199 74.658 199.209 75.381 199.22 76.0848C199.232 76.9334 199.245 77.7541 199.512 78.3712C199.792 79.0198 200.242 79.6259 200.662 80.1927L200.662 80.1929C200.974 80.6124 201.269 81.0104 201.468 81.3881C201.558 81.5588 201.881 82.0719 202.354 82.8214C204.343 85.9718 208.967 93.2983 209.925 96.9192C210.68 99.7696 210.879 102.633 210.716 105.57C210.31 112.877 207.012 121.638 201.629 126.793C200.107 123.219 200 119.735 200.5 115.831C200.5 112.5 200.118 108.759 198.971 105.203C197.506 100.661 194.126 96.3552 190.967 93.1588C191.075 93.3327 191.182 93.5066 191.29 93.6805L191.29 93.6808C192.312 95.3279 193.336 96.9788 194.174 98.7278C194.471 99.3485 194.798 99.9786 195.129 100.617C196.092 102.471 197.09 104.394 197.5 106.349C198.133 109.366 198.5 112.5 198.5 115.5C198.5 115.966 198.471 116.516 198.44 117.119L198.44 117.12C198.337 119.107 198.204 121.662 198.971 123.619C199.548 125.092 200.281 126.529 201.003 127.945L201.004 127.945L201.004 127.946C201.121 128.175 201.238 128.404 201.353 128.633C205.331 136.483 210.499 143.278 215.772 150.213L215.772 150.213C216.357 150.982 216.943 151.752 217.528 152.526C218.124 153.313 218.803 154.124 219.496 154.952L219.496 154.952C221.026 156.782 222.627 158.695 223.563 160.623C224.493 162.538 225.262 167.878 224.831 169.937C224.762 170.266 224.653 170.62 224.351 170.805C224.307 170.832 223.921 170.983 223.891 170.995C223.394 171.197 223.263 171.365 222.987 171.719C222.957 171.758 222.924 171.8 222.889 171.844C221.815 173.203 220.807 172.813 219.591 172.343L219.59 172.343C219.297 172.23 218.992 172.112 218.671 172.013C218.503 172.082 218.335 172.152 218.168 172.222L218.167 172.222L218.166 172.222L218.166 172.223C217.745 172.399 217.323 172.575 216.896 172.732C216.81 172.712 216.715 172.694 216.614 172.674C216.052 172.564 215.33 172.423 215.026 171.983C214.825 171.691 214.744 171.321 214.663 170.947C214.593 170.627 214.523 170.305 214.377 170.029C214.16 169.62 213.799 169.259 213.434 168.894C212.749 168.21 212.054 167.514 212.283 166.472C212.347 166.182 212.516 165.961 212.682 165.744C212.812 165.575 212.939 165.408 213.013 165.214C213.251 164.585 213.126 164.072 213.011 163.604C212.812 162.791 212.646 162.109 214.464 161.178C214.827 160.992 215.203 160.87 215.594 160.757C212.539 153.168 202.417 143.439 195.39 139.001C194.538 138.463 193.611 137.977 192.675 137.486C190.766 136.484 188.822 135.464 187.407 133.95C186.149 132.605 185.84 130.944 185.528 129.267C185.339 128.255 185.15 127.237 184.75 126.278C184.194 124.944 183.306 123.721 182.429 122.513C181.973 121.885 181.519 121.261 181.118 120.628C178.147 115.942 176.607 110.657 175.847 105.203C175.82 105.585 175.801 105.967 175.79 106.349C175.778 106.732 175.773 107.114 175.776 107.497C175.779 107.88 175.789 108.262 175.807 108.644C175.825 109.026 175.849 109.408 175.881 109.79C175.913 110.171 175.953 110.552 175.999 110.931C176.046 111.311 176.1 111.69 176.161 112.068C176.222 112.445 176.29 112.822 176.365 113.197C176.441 113.572 176.523 113.946 176.613 114.318C176.703 114.69 176.799 115.06 176.903 115.428C177.007 115.797 177.118 116.163 177.236 116.527C177.353 116.891 177.478 117.253 177.61 117.612C177.741 117.971 177.88 118.328 178.025 118.682C178.17 119.036 178.322 119.387 178.48 119.735C178.639 120.084 178.804 120.429 178.976 120.771C179.148 121.113 179.326 121.451 179.51 121.787C179.695 122.122 179.886 122.453 180.083 122.781C180.554 123.559 181.08 124.302 181.607 125.044L181.607 125.045L181.607 125.045C182.189 125.864 182.769 126.683 183.273 127.548C183.23 130.571 183.36 133.314 185.643 135.602C187.026 136.987 188.96 137.959 190.799 138.883C191.423 139.197 192.037 139.505 192.613 139.822C194.851 141.051 197.103 142.525 199.016 144.227C198.415 146.175 197.977 148.17 197.538 150.166L197.538 150.166L197.538 150.167L197.538 150.167C197.117 152.086 196.695 154.006 196.129 155.885C192.655 167.414 187.764 178.291 180.278 187.771C178.594 189.903 176.578 192.334 174.449 194.032C174.556 190.683 174.584 187.47 173.997 184.153C172.495 175.673 166.984 166.488 161.118 160.225C155.311 154.026 145.039 145.771 136.365 145.305C136.121 145.292 135.887 145.305 135.645 145.321C146.881 148.034 159.872 160.884 165.772 170.489C171.138 179.223 173.438 188.496 171.004 198.618C169.131 206.406 165.526 213.868 162.025 221.112L162.025 221.112C161.575 222.043 161.126 222.971 160.684 223.896C158.885 227.653 157.18 231.452 155.568 235.293C155.289 235.955 154.996 236.624 154.701 237.299L154.701 237.3L154.7 237.3C153.611 239.789 152.487 242.357 151.897 244.938C151.538 246.509 151.407 248.142 152.284 249.575C152.908 250.596 153.855 251.073 154.999 251.329C156.43 251.648 157.963 251.702 159.461 251.755H159.461C159.945 251.772 160.424 251.789 160.896 251.814C163.727 251.991 166.56 252.148 169.394 252.285C175.899 252.598 182.408 252.728 188.92 252.678C190.087 252.675 191.269 252.643 192.455 252.612L192.456 252.612H192.457C194.864 252.547 197.289 252.482 199.645 252.657C211.311 253.527 224.877 258.619 234.081 265.864C236.558 267.814 238.669 270.092 240.801 272.392L240.801 272.393L241.148 272.767C238.76 272.319 236.434 271.634 234.107 270.948L234.105 270.947L234.102 270.947L234.1 270.946C233.768 270.848 233.437 270.751 233.105 270.654C232.71 270.538 232.282 270.397 231.837 270.251C230.506 269.814 229.023 269.327 227.814 269.311C229.21 270.827 230.272 272.526 231.25 274.336C231.125 274.302 231 274.269 230.874 274.236C230.266 274.075 229.656 273.914 229.074 273.674C227.659 273.449 226.188 272.907 224.742 272.373C223.891 272.06 223.049 271.749 222.231 271.508C218.843 270.51 215.397 269.624 211.96 268.741L211.959 268.741L211.959 268.741L211.958 268.74L211.957 268.74C210.574 268.385 209.191 268.029 207.815 267.667C202.681 266.317 197.44 265.37 192.215 264.454C185.76 263.265 179.269 262.317 172.743 261.612C166.022 260.901 159.292 260.293 152.553 259.787C151.422 259.698 150.279 259.627 149.133 259.555H149.133H149.133H149.133H149.132C146.653 259.401 144.158 259.245 141.732 258.903C141.087 258.812 140.403 258.656 139.85 258.296C136.505 256.12 140.012 249.193 141.892 245.479L141.892 245.478C142.185 244.9 142.438 244.4 142.62 244.007C143.34 242.454 143.906 240.916 144.353 239.265C145.821 233.846 146.414 228.371 145.679 222.778C145.334 220.157 144.677 217.497 143.054 215.357C142.079 214.071 140.368 212.783 138.724 211.544C137.783 210.835 136.863 210.142 136.116 209.476C129.549 203.624 123.757 196.852 120.785 188.446C120.106 186.53 119.632 184.553 119.158 182.577L119.158 182.577L119.158 182.576L119.158 182.576C119.066 182.192 118.974 181.807 118.88 181.423L118.877 181.495L118.877 181.496L118.877 181.497L118.877 181.498C118.874 181.557 118.872 181.616 118.871 181.676C118.823 184.652 119.572 187.854 120.409 190.69C122.684 198.399 127.453 204.555 133.391 209.828C134.118 210.473 134.87 211.093 135.623 211.714C136.787 212.674 137.952 213.634 139.023 214.687C136.735 224.967 130.566 235.989 124.248 244.311C114.991 256.503 103.139 262.769 88.078 264.798C73.169 266.807 57.0295 263.92 42.4093 260.913C33.5844 259.172 24.8523 257.05 16.213 254.546C15.8514 254.442 15.2812 254.292 14.5906 254.11C11.8343 253.384 7.16221 252.154 6.19957 251.36C5.70631 250.953 5.51466 250.288 5.49905 249.67C5.48029 248.928 5.72357 248.143 6.27773 247.629C6.91676 247.035 7.85303 246.938 8.68059 247.066C10.4026 247.333 12.1204 247.692 13.8396 248.05L13.8405 248.051C15.3761 248.371 16.913 248.691 18.4551 248.948C33.8768 251.508 49.5434 253.76 65.2143 253.738C77.3572 253.72 89.7444 251.797 98.7088 242.743C107.276 234.09 112.251 219.716 113.097 207.71C113.343 204.22 113.249 200.74 113.155 197.256C113.111 195.603 113.066 193.95 113.058 192.294C112.914 163.687 118.736 138.049 143.45 120.884C145.613 119.359 147.822 117.903 150.076 116.516C151.024 115.935 151.987 115.359 152.954 114.78C157.791 111.884 162.759 108.911 166.676 104.921C167.239 104.348 167.768 103.745 168.262 103.111C168.756 102.478 169.211 101.817 169.629 101.131C170.822 99.1785 171.813 97.1089 172.802 95.0422C173.241 94.1242 173.68 93.2068 174.137 92.3005C174.557 91.465 175.009 90.6363 175.461 89.8063L175.462 89.8054C176.225 88.4043 176.991 86.9992 177.615 85.5506C177.873 84.9497 178.101 84.3152 178.157 83.6596C178.271 82.3307 178.039 80.85 177.817 79.438L177.817 79.4378C177.737 78.9226 177.657 78.4165 177.597 77.9304C177.334 75.8626 177.197 73.7865 177.186 71.7019C177.177 63.6354 179.335 56.3981 185.099 50.6151C184.942 50.5205 184.786 50.4262 184.629 50.3319C182.782 49.2191 180.938 48.1082 179.325 46.6607C173.088 41.0619 171.111 31.796 170.706 23.7414C171.561 23.8867 172.41 24.0631 173.252 24.2706C175.706 24.8666 178.237 25.6049 180.506 26.7184C186.134 29.4818 190.845 34.7537 193.605 40.341C194.315 41.7782 194.965 43.3151 195.588 44.7948C195.713 45.0919 195.826 45.3926 195.939 45.6926C196.193 46.3647 196.446 47.0339 196.824 47.6534L197.385 47.7878C197.623 47.1793 197.586 46.5529 197.5 45.9144C197.339 44.7195 196.912 43.5629 196.495 42.4329L196.495 42.4326L196.433 42.2629C194.481 36.9621 191.246 33.1014 186.78 29.7448C187.546 26.8935 188.942 24.0103 190.819 21.7271C191.105 21.9985 191.39 22.2717 191.674 22.5465C196.78 27.5022 199.635 40.3586 199.968 41.8577ZM179.283 192.598C188.043 183.318 193.07 173.158 196.934 161.122C196.987 161.185 197.046 161.243 197.093 161.311C197.986 162.602 198.959 167.383 199.298 169.169C200.189 173.864 200.348 178.673 199.401 183.369C198.06 190.011 194.294 197.244 191.022 203.528C190.651 204.24 190.287 204.939 189.933 205.624C188.444 208.466 186.969 211.316 185.508 214.172C184.372 216.394 183.244 218.62 182.124 220.851C181.759 221.575 181.377 222.309 180.989 223.053C179.332 226.234 177.586 229.585 176.766 232.97C176.376 234.58 176.029 236.962 176.978 238.414C177.574 239.326 178.478 239.716 179.517 239.903C182.436 240.427 185.658 240.366 188.735 240.307H188.735L188.737 240.307C189.575 240.291 190.402 240.275 191.209 240.272C193.67 240.268 196.131 240.253 198.591 240.229C201.962 240.194 205.332 240.14 208.702 240.067C209.624 240.044 210.553 240.017 211.485 239.99L211.489 239.99C217.793 239.808 224.297 239.62 230.463 240.752C240.402 242.576 254.643 248.323 260.59 256.885C258.849 256.825 256.987 256.5 255.121 256.173C252.896 255.784 250.665 255.394 248.628 255.453C248.6 255.454 248.575 255.455 248.552 255.455L248.501 255.455H248.469L248.453 255.455L248.433 255.455C248.416 255.456 248.401 255.457 248.387 255.46C248.383 255.46 248.379 255.461 248.374 255.462C248.369 255.464 248.363 255.465 248.357 255.467C248.303 255.486 248.26 255.535 248.143 255.657C248.546 256.395 249.006 257.079 249.478 257.774C245.767 256.465 241.941 255.635 238.095 254.835C228.687 252.881 219.203 251.828 209.66 250.802C207.621 250.582 205.583 250.336 203.546 250.09L203.543 250.09C200.784 249.757 198.025 249.424 195.263 249.157C192.216 248.863 189.15 248.675 186.088 248.501C185.685 248.479 185.283 248.456 184.88 248.433L184.777 248.428L184.776 248.427C184.261 248.398 183.746 248.37 183.232 248.34C179.671 248.157 176.106 248.058 172.54 248.042C171.966 248.039 171.244 248.065 170.464 248.093C168.527 248.162 166.235 248.244 164.982 247.928C164.19 247.729 163.54 247.267 163.13 246.556C162.826 246.031 162.646 245.402 162.566 244.804C162.236 242.339 163.636 240.112 164.976 237.981C165.515 237.124 166.043 236.284 166.446 235.449C167.206 233.874 167.708 232.134 168.194 230.453L168.227 230.338C169.755 225.045 170.861 219.419 171.087 213.91C171.12 213.096 171.015 212.25 170.911 211.404V211.404C170.778 210.337 170.646 209.271 170.793 208.271C170.964 207.108 171.417 205.928 171.861 204.77L171.861 204.77C172.09 204.172 172.317 203.58 172.502 203C172.88 201.809 173.185 200.602 173.49 199.393L173.491 199.391L173.518 199.282C173.656 198.734 173.795 198.186 173.941 197.639C174.666 196.93 175.416 196.25 176.167 195.571L176.168 195.57L176.17 195.568L176.17 195.568L176.17 195.568L176.17 195.568L176.17 195.568L176.17 195.568C177.233 194.606 178.296 193.644 179.283 192.598ZM207.823 59.6324C208.146 59.518 208.445 59.3382 208.736 59.159C208.983 58.6872 209.198 58.1519 209.022 57.6128C208.88 57.1795 208.489 56.9254 208.084 56.7742C207.18 56.4367 206.135 56.4738 205.158 56.5085L205.157 56.5086C205 56.5141 204.844 56.5197 204.691 56.5236C204.724 56.6421 204.756 56.766 204.789 56.8934C205.044 57.8691 205.351 59.0489 206.23 59.568C206.721 59.8579 207.302 59.8174 207.823 59.6324ZM187.416 49.5632C186.942 49.3829 186.476 49.1854 186.016 48.9709C185.557 48.7565 185.106 48.5254 184.664 48.2778C184.222 48.0301 183.789 47.7667 183.366 47.4875C182.943 47.2081 182.531 46.9136 182.13 46.6041C175.58 41.5527 173.186 33.6853 172.201 25.7764C176.561 26.5274 180.937 28.6167 183.977 31.8772C187.89 36.075 189.779 43.4183 189.612 49.0513C188.159 44.6844 186.345 40.8781 183.666 37.122C183.403 36.7213 183.118 36.349 182.82 35.9733L182.67 36.0432C182.538 36.709 182.614 37.4186 182.688 38.1049L182.688 38.1063C182.706 38.271 182.724 38.4345 182.738 38.5956C183.014 41.6637 183.717 45.6097 185.751 48.0514C186.142 48.5208 186.635 48.9243 187.115 49.3163C187.216 49.399 187.317 49.4811 187.416 49.5632ZM228.681 73.6486C228.625 73.6013 228.566 73.5513 228.5 73.5C228.461 73.4694 228.423 73.4415 228.388 73.415C228.226 73.2949 228.101 73.2023 228 73C227.887 72.7735 227.921 72.5844 227.958 72.3729C227.979 72.2584 228 72.1372 228 72C228 71.8628 227.952 71.6985 227.906 71.5431C227.822 71.2564 227.747 71 228 71C228.146 71 228.205 71.1157 228.266 71.2375C228.32 71.3458 228.377 71.4589 228.5 71.5C228.603 71.5344 228.687 71.5219 228.774 71.5089C228.843 71.4985 228.915 71.4878 229 71.5C229.432 71.5617 229.691 71.6913 230 72C230.309 72.3087 230.438 72.5678 230.5 73C230.504 73.0277 230.508 73.054 230.512 73.0792C230.536 73.2295 230.553 73.3413 230.5 73.5C230.362 73.9142 230 74 229.5 74C229.096 74 228.917 73.8484 228.681 73.6486Z" fill="url(#paint0_linear_653_174)"/>
<path d="M241.391 81.5268C240.59 80.4383 239.942 79.2578 239.895 77.8765L240.007 77.6914C241.685 74.8512 248.312 71.3303 251.501 69.9824C252.508 69.557 253.964 68.9553 255.024 69.4388C256.229 69.9886 256.784 72.2601 257.206 73.4092C251.691 74.9045 245.985 78.1593 241.391 81.5268Z" fill="url(#paint1_linear_653_174)"/>
<path d="M270.623 109.783C269.727 108.745 269.073 107.2 268.381 106.004C267.486 104.458 266.518 102.944 265.572 101.428C265.289 100.974 264.349 99.2646 263.864 99.1521C264.371 100.501 269.282 109.012 270.282 109.985L270.623 109.902L271.703 111.561C275.349 109.978 281.428 106.852 285.374 108.354C286.469 108.77 287.151 109.629 287.572 110.697C288.543 113.161 288.203 116.395 287.111 118.766C284.313 124.84 274.022 130.046 267.882 132.251C264.664 133.407 260.399 134.286 257.16 132.758C255.415 131.934 254.127 130.476 253.475 128.664C252.899 127.066 253.1 125.509 253.851 124.005C255.871 119.96 259.951 116.775 263.536 114.145C261.934 112.041 260.727 109.617 259.408 107.331C257.493 104.023 255.543 100.736 253.557 97.4691C249.705 98.9637 243.215 101.529 239.161 99.647C238.121 99.1646 237.406 98.3367 237.05 97.2502C236.022 94.1069 237.804 88.2675 239.325 85.461C239.821 84.5465 240.413 83.693 241.174 82.978C242.147 82.0649 243.381 81.3549 244.51 80.6497C248.838 77.9453 253.411 75.5837 258.333 74.1597C260.208 73.6173 261.906 73.1842 263.812 73.8385C264.287 74.3876 264.787 74.9279 265.217 75.5135C266.813 75.3111 268.723 75.5572 270.04 76.5304C271.156 77.3563 271.947 78.8837 272.145 80.244C272.433 82.2274 271.447 84.0673 270.26 85.578C267.757 88.7617 264.091 90.8334 260.623 92.7933C261.601 94.5711 262.881 97.3889 264.109 98.8495C264.817 98.5518 265.642 98.0946 266.413 98.4001C266.835 98.5674 267.219 98.8742 267.367 99.3164C267.521 99.778 267.458 100.372 267.823 100.696C268.525 100.682 269.169 100.586 269.697 101.133C270.412 101.875 269.873 102.682 270.303 103.433C270.371 103.431 270.438 103.427 270.505 103.425C271.162 103.405 271.71 103.431 272.209 103.91C272.641 104.326 272.794 104.816 272.781 105.408C272.746 107.108 271.667 108.539 270.623 109.783ZM237.663 94.1907C237.418 94.9805 237.384 95.7549 237.336 96.5747C241.353 88.7065 253.614 82.4884 261.708 79.8508C264.122 79.0639 266.734 78.4237 269.292 78.5701L269.458 78.6013C269.817 78.6659 270.1 78.7485 270.453 78.6098C270.387 78.2959 270.466 78.4109 270.184 78.2151C268.686 77.1733 266.19 77.7188 264.53 78.0716C255.353 80.0202 243.061 86.4958 237.663 94.1907ZM254.573 94.9045C255.676 97.8662 257.875 101.165 259.441 103.997C261.478 107.701 263.566 111.377 265.705 115.023C266.569 116.523 267.317 118.164 268.264 119.604C268.412 119.829 268.549 120.009 268.788 120.145C268.958 120.242 268.921 120.215 269.094 120.147C269.103 119.994 269.131 119.83 269.101 119.68C266.883 114.954 264.226 110.395 261.779 105.779C260.422 103.215 259.039 100.665 257.63 98.1281C256.954 96.903 256.326 95.5626 255.519 94.4206C255.097 94.4239 254.907 94.6632 254.573 94.9045ZM254.13 128.247C254.866 128.893 255.592 128.952 256.549 128.907C264.621 128.527 279.19 119.893 284.496 113.806C285.176 113.026 286.282 111.743 286.255 110.664C286.249 110.415 286.151 110.198 286.053 109.975L285.596 109.541L285.411 109.583C285.411 109.632 285.411 109.682 285.411 109.73C285.385 111.705 283.31 113.713 281.96 114.987C276.295 120.33 267.546 125.167 260.093 127.343C258.96 127.674 254.268 128.18 254.13 128.247Z" fill="url(#paint2_linear_653_174)"/>
<path d="M207.537 122.182C208.279 120.959 209.047 119.739 209.706 118.47C213.745 110.698 213.283 102.112 210.727 93.9375C212.5 93.9375 215.438 94.5 219 101.5C222.562 108.5 220.5 111 223.062 115.831C225.465 117.746 256.539 107.292 259.5 107L261 109C262 111 261.5 110 262.5 112C259.519 112.928 233.039 122.654 230.13 123.809C226.182 125.521 221.95 126.395 218.293 128.696C217.949 128.016 217.615 127.274 217.124 126.687C215.114 124.28 210.463 123.421 207.537 122.182Z" fill="url(#paint3_linear_653_174)"/>
<path d="M270.47 136.933C269.408 135.841 268.744 134.623 268.014 133.297C269.058 132.947 270.09 132.564 271.109 132.147C272.128 131.73 273.133 131.28 274.123 130.797C275.113 130.315 276.086 129.8 277.043 129.255C277.999 128.709 278.937 128.132 279.856 127.525C281.242 126.613 282.515 125.55 283.905 124.646C284.504 125.77 285.033 126.926 285.493 128.114C285.506 128.268 285.52 128.362 285.501 128.525C285.36 129.74 283.892 130.914 282.973 131.623C280.094 133.846 274.232 137.437 270.47 136.933Z" fill="url(#paint4_linear_653_174)"/>
</g>
<defs>
<linearGradient id="paint0_linear_653_174" x1="133.044" y1="21.7271" x2="133.044" y2="274.336" gradientUnits="userSpaceOnUse">
<stop stop-color="#E2EFDE"/>
<stop offset="1" stop-color="#4EFE6E"/>
</linearGradient>
<linearGradient id="paint1_linear_653_174" x1="243.35" y1="72.4021" x2="253.702" y2="78.9499" gradientUnits="userSpaceOnUse">
<stop stop-color="#E2EFDE"/>
<stop offset="1" stop-color="#4EFE6E"/>
</linearGradient>
<linearGradient id="paint2_linear_653_174" x1="237.559" y1="88.1979" x2="286.836" y2="119.366" gradientUnits="userSpaceOnUse">
<stop stop-color="#E2EFDE"/>
<stop offset="1" stop-color="#4EFE6E"/>
</linearGradient>
<linearGradient id="paint3_linear_653_174" x1="235.019" y1="93.9375" x2="235.019" y2="128.696" gradientUnits="userSpaceOnUse">
<stop stop-color="#E2EFDE"/>
<stop offset="1" stop-color="#4EFE6E"/>
</linearGradient>
<linearGradient id="paint4_linear_653_174" x1="271.768" y1="127.362" x2="282.277" y2="134.009" gradientUnits="userSpaceOnUse">
<stop stop-color="#E2EFDE"/>
<stop offset="1" stop-color="#4EFE6E"/>
</linearGradient>
<clipPath id="clip0_653_174">
<rect width="296" height="296" fill="white"/>
</clipPath>
</defs>
</svg>
